HIERARCHY
ROOT Hips
{
	OFFSET 0.000000 0.000000 0.000000 
	CHANNELS 6 Xposition Yposition Zposition Zrotation Yrotation Xrotation
	JOINT LeftUpLeg
	{
		OFFSET 1.363060 -1.794630 0.839290 
		CHANNELS 3 Zrotation Yrotation Xrotation
		JOINT LeftLeg
		{
			OFFSET 2.448110 -6.726130 0.000000 
			CHANNELS 3 Zrotation Yrotation Xrotation
			JOINT LeftFoot
			{
				OFFSET 2.562200 -7.039590 0.000000 
				CHANNELS 3 Zrotation Yrotation Xrotation
				JOINT LeftToeBase
				{
					OFFSET 0.157640 -0.433110 2.322550 
					CHANNELS 3 Zrotation Yrotation Xrotation
					End Site
					{
						OFFSET 0.000000 0.000000 0.000000 
					}
				}
			}
		}
	}
	JOINT RightUpLeg
	{
		OFFSET -1.305520 -1.794630 0.839290 
		CHANNELS 3 Zrotation Yrotation Xrotation
		JOINT RightLeg
		{
			OFFSET -2.542530 -6.985550 0.000000 
			CHANNELS 3 Zrotation Yrotation Xrotation
			JOINT RightFoot
			{
				OFFSET -2.568260 -7.056230 0.000000 
				CHANNELS 3 Zrotation Yrotation Xrotation
				JOINT RightToeBase
				{
					OFFSET -0.164730 -0.452590 2.363150 
					CHANNELS 3 Zrotation Yrotation Xrotation
					End Site
					{
						OFFSET 0.000000 0.000000 0.000000 
					}
				}
			}
		}
	}
	JOINT Spine
	{
		OFFSET 0.028270 2.035590 -0.193380 
		CHANNELS 3 Zrotation Yrotation Xrotation
		JOINT Spine1
		{
			OFFSET 0.056720 2.048850 -0.042750 
			CHANNELS 3 Zrotation Yrotation Xrotation
			JOINT Neck1
			{
				OFFSET -0.054170 1.746240 0.172020 
				CHANNELS 3 Zrotation Yrotation Xrotation
				JOINT Head
				{
					OFFSET 0.104070 1.761360 -0.123970 
					CHANNELS 3 Zrotation Yrotation Xrotation
					End Site
					{
						OFFSET 0.000000 0.000000 0.000000 
					}
				}
			}
			JOINT LeftArm
			{
				OFFSET 3.362410 1.200890 -0.311210 
				CHANNELS 3 Zrotation Yrotation Xrotation
				JOINT LeftForeArm
				{
					OFFSET 4.983000 -0.000000 -0.000000 
					CHANNELS 3 Zrotation Yrotation Xrotation
					JOINT LeftHand
					{
						OFFSET 3.483560 -0.000000 -0.000000 
						CHANNELS 3 Zrotation Yrotation Xrotation
						JOINT LeftHandIndex1
						{
							OFFSET 0.715260 -0.000000 -0.000000 
							CHANNELS 3 Zrotation Yrotation Xrotation
							End Site
							{
								OFFSET 0.000000 0.000000 0.000000 
							}
						}
					}
				}
			}
			JOINT RightArm
			{
				OFFSET -3.136600 1.374050 -0.404650 
				CHANNELS 3 Zrotation Yrotation Xrotation
				JOINT RightForeArm
				{
					OFFSET -5.241900 -0.000000 -0.000000 
					CHANNELS 3 Zrotation Yrotation Xrotation
					JOINT RightHand
					{
						OFFSET -3.444170 -0.000000 -0.000000 
						CHANNELS 3 Zrotation Yrotation Xrotation
						JOINT RightHandIndex1
						{
							OFFSET -0.622530 -0.000000 -0.000000 
							CHANNELS 3 Zrotation Yrotation Xrotation
							End Site
							{
								OFFSET 0.000000 0.000000 0.000000 
							}
						}
					}
				}
			}
		}
	}
}
MOTION
Frames: 6
Frame Time: 0.041667
6.605851 17.587608 8.719606 177.101862 5.867454 179.590269 -4.768169 4.234060 -23.837218 2.996032 12.568160 36.515426 3.047629 -12.036001 0.621691 0.340100 -3.747700 -10.367900 3.715492 -0.886205 -24.401911 -4.313951 -13.541904 40.976761 -3.105125 16.453752 4.191248 -0.341200 3.753800 -10.385000 -0.992501 0.919694 1.689893 1.657906 0.696467 -2.405796 5.408316 1.821965 7.849690 -1.063300 1.158100 9.234100 -30.965263 -45.966597 -7.617361 70.002084 -48.142720 -46.763890 1.960867 -2.563069 -7.123972 -7.125000 0.000000 0.000000 27.831254 43.914261 1.179305 -69.193920 45.851487 -47.796706 -2.625435 2.848404 -9.857894 7.125000 0.000000 0.000000 
6.606954 17.583996 8.728135 177.375632 5.968717 179.675517 -4.488550 4.284446 -23.961406 3.028484 12.587780 36.581565 3.052253 -12.023733 0.677366 0.335400 -3.722000 -10.295800 4.022929 -0.691233 -24.476721 -4.312374 -13.543620 40.999045 -3.093120 16.374478 4.053595 -0.340100 3.747600 -10.367600 -0.931613 0.970867 1.655294 1.606115 0.718293 -2.476512 5.390714 1.823242 7.816270 -1.071800 1.154900 9.217600 -30.906357 -45.957919 -7.682935 70.013138 -48.150181 -46.778285 1.965000 -2.562664 -7.109478 -7.125000 0.000000 0.000000 27.837596 43.908623 1.201890 -69.192407 45.848688 -47.795475 -2.623308 2.848258 -9.869656 7.125000 0.000000 0.000000 
6.603744 17.585401 8.723821 177.193910 5.917759 179.631874 -4.683764 4.241596 -23.893831 3.014064 12.581168 36.560704 3.050902 -12.037868 0.592561 0.336200 -3.726200 -10.307700 3.813386 -0.837626 -24.456418 -4.312673 -13.542067 40.984757 -3.100060 16.434649 4.187571 -0.341500 3.755000 -10.388300 -0.970489 0.933550 1.667636 1.640912 0.702682 -2.450363 5.387002 1.817839 7.791189 -1.070600 1.149100 9.204800 -30.865794 -45.948901 -7.750053 70.022119 -48.158546 -46.790876 1.967537 -2.561327 -7.106572 -7.125000 0.000000 0.000000 27.853168 43.900515 1.233847 -69.218040 45.856251 -47.822374 -2.625032 2.846198 -9.893767 7.125000 0.000000 0.000000 
6.603643 17.586605 8.720710 177.061013 5.902314 179.589540 -4.819700 4.232139 -23.866383 3.015743 12.589046 36.589965 3.050712 -12.067598 0.551053 0.337700 -3.734300 -10.330400 3.668323 -0.892241 -24.428166 -4.314568 -13.542002 40.978610 -3.103425 16.450673 4.250107 -0.342500 3.760700 -10.404400 -0.988782 0.916769 1.683170 1.702976 0.696148 -2.426176 5.365146 1.829025 7.761434 -1.080700 1.150100 9.187800 -30.818386 -45.928605 -7.816594 70.039555 -48.170684 -46.812291 1.967693 -2.561339 -7.120848 -7.125000 0.000000 0.000000 27.857564 43.903480 1.260198 -69.213696 45.856206 -47.816264 -2.621668 2.847277 -9.913120 7.125000 0.000000 0.000000 
6.602740 17.587608 8.720008 177.084690 5.921557 179.589987 -4.796740 4.236268 -23.854448 3.015952 12.588151 36.585763 3.053295 -12.074188 0.542482 0.335400 -3.722000 -10.295900 3.689755 -0.867126 -24.410750 -4.310953 -13.540266 40.970840 -3.103580 16.459093 4.249360 -0.339500 3.744000 -10.357600 -0.990859 0.919981 1.684345 1.681363 0.697771 -2.416513 5.378550 1.824569 7.729003 -1.072200 1.147100 9.166100 -30.775169 -45.903415 -7.871964 70.070195 -48.186271 -46.847750 1.970042 -2.559369 -7.109992 -7.125000 0.000000 0.000000 27.880398 43.913063 1.287429 -69.204077 45.847651 -47.803580 -2.620438 2.847708 -9.905949 7.125000 0.000000 0.000000 
6.604647 17.584899 8.726730 177.314008 6.005276 179.662711 -4.560531 4.299961 -23.943554 3.025542 12.585469 36.575954 3.049563 -12.006410 0.625859 0.339100 -3.742000 -10.351900 3.949878 -0.705802 -24.472804 -4.307484 -13.540092 40.981220 -3.093324 16.380721 4.124203 -0.343600 3.766700 -10.421200 -0.938154 0.965149 1.654356 1.644749 0.716764 -2.475153 5.357405 1.824524 7.706782 -1.082700 1.143500 9.156300 -30.746001 -45.895017 -7.913889 70.078866 -48.189718 -46.856296 1.966245 -2.561630 -7.103178 -7.125000 0.000000 0.000000 27.887184 43.900865 1.296257 -69.189790 45.842275 -47.789872 -2.621585 2.845881 -9.897980 7.125000 0.000000 0.000000 
